<svg id="Capa_1" enable-background="new 0 0 511.795 511.795" height="512" viewBox="0 0 511.795 511.795" width="512" xmlns="http://www.w3.org/2000/svg"><g><path d="m459.525 316.615c9.17-19.175 9.17-41.807 0-60.967 7.017-20.537 3.252-43.213-9.727-60.322l.205-1.011c4.058-20.669-3.618-41.777-19.395-55.107l.088-2.534c.601-20.142-10.503-38.101-27.92-46.699l-.22-1.611c-2.534-19.146-17.007-35.146-35.112-39.13-3.647-10.444-11.338-19.131-21.27-23.95-6.401-3.12-13.491-4.6-20.479-4.204-5.815-7.793-14.253-13.33-23.892-15.527-7.588-1.685-15.352-1.23-22.588 1.216-6.823-4.513-15.07-6.769-23.318-6.769s-16.494 2.256-23.32 6.768c-7.207-2.446-14.971-2.9-22.588-1.216-9.653 2.197-18.091 7.734-23.892 15.527-7.031-.308-14.063 1.069-20.435 4.189-9.961 4.834-17.666 13.506-21.313 23.965-18.105 3.984-32.578 19.984-35.112 39.101l-.22 1.641c-17.417 8.599-28.521 26.558-27.92 46.685l.088 2.549c-15.776 13.33-23.452 34.438-19.395 55.107l.205 1.011c-12.979 17.109-16.758 39.8-9.727 60.322-9.17 19.16-9.17 41.792 0 60.967-7.031 20.537-3.252 43.213 9.727 60.308l-.205 1.025c-3.721 19.014 2.285 38.481 16.069 52.075l178.037.007 178.022.007c13.799-13.623 19.819-33.105 16.084-52.104l-.205-1.011c12.98-17.11 16.76-39.785 9.728-60.308z" fill="#5a5a5a"/><path d="m450.004 377.934-.205-1.011c12.979-17.109 16.758-39.785 9.727-60.308 9.17-19.175 9.17-41.807 0-60.967 7.017-20.537 3.252-43.213-9.727-60.322l.205-1.011c4.058-20.669-3.618-41.777-19.395-55.107l.088-2.534c.601-20.142-10.503-38.101-27.92-46.699l-.22-1.611c-2.534-19.146-17.007-35.146-35.112-39.13-3.647-10.444-11.338-19.131-21.27-23.95-6.401-3.12-13.491-4.6-20.479-4.204-5.815-7.793-14.253-13.33-23.892-15.527-7.588-1.685-15.352-1.23-22.588 1.216-6.824-4.513-15.071-6.769-23.319-6.769v430.031l178.022.007c13.8-13.623 19.82-33.105 16.085-52.104z" fill="#444"/><g><path d="m330.897 360.795h-30l-30 30h-15-15l-30-30h-30c-74.559 0-135 60.441-135 135v16h210 210v-16c0-74.559-60.441-135-135-135z" fill="#7ed8f6"/></g><g><path d="m465.897 495.795c0-74.559-60.441-135-135-135h-30l-30 30h-15v121h210z" fill="#6aa9ff"/></g><g><path d="m255.897 315.795h-45v75c0 24.853 20.147 45 45 45s45-20.147 45-45v-75z" fill="#fa9"/></g><g><path d="m300.897 390.795v-75h-45v120c24.853 0 45-20.147 45-45z" fill="#ff8066"/></g><path d="m300.897 90.795c-16.534 0-32.067 5.565-45 15.366-2.752 2.086-5.544 4.12-8.027 6.606-17.358 17.344-45.63 38.027-81.694 38.027h-30.278v90c0 65.457 52.771 120 120 120 66.167 0 120-53.833 120-120v-75c-.001-41.352-33.648-74.999-75.001-74.999z" fill="#ffd5cc"/><path d="m375.897 240.795v-75c0-41.353-33.647-75-75-75-16.534 0-32.067 5.565-45 15.366v254.634c66.167 0 120-53.833 120-120z" fill="#fa9"/><g><path d="m195.897 180.795h30v30h-30z" fill="#5a5a5a"/></g><g><path d="m285.897 180.795h30v30h-30z" fill="#444"/></g><path d="m283.539 252.44c-4.717 11.147-15.571 18.354-27.642 18.354s-22.925-7.207-27.642-18.354l-27.627 11.719c9.434 22.251 31.128 36.636 55.269 36.636s45.835-14.385 55.269-36.636z" fill="#ff7b4a"/><path d="m311.166 264.159-27.627-11.719c-4.717 11.147-15.571 18.354-27.642 18.354v30c24.141.001 45.835-14.384 55.269-36.635z" fill="#ff435b"/></g></svg>