<svg id="Capa_1" enable-background="new 0 0 512 512" height="512" viewBox="0 0 512 512" width="512" xmlns="http://www.w3.org/2000/svg"><g><g><path d="m434.74 287.479c-3.823-8.76-13.74-34.849-13.74-50.229 0-4.204.806-11.968 4.658-25.049 10.503-35.522 9.185-70.532-3.809-101.265-28.242-66.782-93.339-110.936-165.849-110.936-72.495 0-137.593 44.154-165.85 110.937-12.993 30.732-14.312 65.757-3.809 101.25 3.853 13.095 4.659 20.859 4.659 25.063 0 15.381-9.917 41.484-13.74 50.229-1.67 3.809-16.26 37.867-16.26 62.271s14.59 58.462 16.26 62.271l11.851 27.085h166.889 166.89l11.851-27.085c1.67-3.809 16.26-37.866 16.26-62.271s-14.591-58.462-16.261-62.271z" fill="#fabe2c"/></g><g><path d="m434.74 412.021c1.67-3.809 16.26-37.866 16.26-62.271s-14.59-58.462-16.26-62.271c-3.823-8.76-13.74-34.849-13.74-50.229 0-4.204.806-11.968 4.658-25.049 10.503-35.522 9.185-70.532-3.809-101.265-28.242-66.782-93.339-110.936-165.849-110.936v439.105h166.89z" fill="#ff9100"/></g><path d="m331 361h-30l-30 30h-15-15l-30-30h-30c-74.559 0-135 60.441-135 135v16h210 210v-16c0-74.559-60.441-135-135-135z" fill="#65d6a9"/><path d="m466 496c0-74.559-60.441-135-135-135h-30l-30 30h-15v121h210z" fill="#26bfa6"/><path d="m256 316h-45v75c0 24.853 20.147 45 45 45s45-20.147 45-45v-75z" fill="#fa9"/><path d="m301 391v-75h-45v120c24.853 0 45-20.147 45-45z" fill="#ff8066"/><g><path d="m338.441 125.233-4.365-4.233h-78.076c-10.723 0-20.522-5.669-25.591-14.78l-6.357-11.455-12.202 4.761c-46.084 17.974-75.85 62.9-75.85 114.478v26.996c0 66.273 53.725 120 120 120s120-53.727 120-120v-26.104c0-33.808-13.682-66.489-37.559-89.663z" fill="#ffd5cc"/></g><g><path d="m376 241v-26.104c0-33.809-13.682-66.489-37.559-89.663l-4.365-4.233h-78.076v240c66.275 0 120-53.727 120-120z" fill="#fa9"/></g><g><path d="m196 181h30v30h-30z" fill="#5a5a5a"/></g><g><path d="m286 181h30v30h-30z" fill="#444"/></g><path d="m283.642 252.646c-4.717 11.147-15.572 18.354-27.642 18.354s-22.925-7.207-27.642-18.354l-27.627 11.719c9.434 22.25 31.128 36.635 55.269 36.635s45.835-14.385 55.269-36.636z" fill="#ff8fb8"/><path d="m311.269 264.364-27.627-11.719c-4.717 11.148-15.572 18.355-27.642 18.355v30c24.141 0 45.835-14.385 55.269-36.636z" fill="#ff5f96"/></g></svg>